<svg height="212" viewBox="0 0 134 212" width="134" xmlns="http://www.w3.org/2000/svg" xmlns:xlink="http://www.w3.org/1999/xlink"><defs><rect id="a" height="188" rx="9.642624" width="102" x="8" y="6"/><linearGradient id="b" x1="35.621143%" x2="63.877751%" y1="-11.905675%" y2="108.78427%"><stop offset="0" stop-color="#5bb6eb"/><stop offset="1" stop-color="#559fff"/></linearGradient><mask id="c" fill="#fff"><use fill="#fff" fill-rule="evenodd" xlink:href="#a"/></mask></defs><g fill="none" fill-rule="evenodd" transform="translate(8 6)"><path d="m 116 184.97 c 0 8.3 -6.73 15.03 -15.03 15.03 h -83.94 c -8.3 0 -15.03 -6.73 -15.03 -15.03 v -99.79 l -0.15 -0.01 c -0.98 -0.07 -1.77 -0.86 -1.84 -1.84 l -0.01 -0.16 v -8.86 c 0 -1.1 0.9 -2 2 -2 v -9.93 l -0.15 -0.01 c -0.98 -0.07 -1.77 -0.86 -1.84 -1.84 l -0.01 -0.16 v -21.34 c 0 -1.1 0.9 -2 2 -2 v -22.03 c 0 -8.3 6.73 -15.03 15.03 -15.03 h 83.94 c 8.3 0 15.03 6.73 15.03 15.03 v 22.03 c 1.1 0 2 0.9 2 2 v 15.66 c 0 1.05 -0.82 1.92 -1.85 1.99 l -0.15 0.01 z" fill="#406798"/><rect fill="#092943" height="196" rx="13.802188" width="110" x="4" y="2"/><use fill="#fff" xlink:href="#a"/><path d="m6 3h106v191h-106z" fill="url(#b)" mask="url(#c)"/><path d="m5 93h106v103h-106z" fill="#fff" mask="url(#c)"/><path d="m5 177h106v18h-106z" fill="#fff" mask="url(#c)" opacity="0"/><g mask="url(#c)"><g fill="#fff" fill-rule="evenodd" transform="translate(38 28)"><path d="m 20.11 30.88 l 0.66 5.47 c 0.26 2.25 -1.2 4.3 -3.27 4.58 c -0.07 0.01 -0.14 0.02 -0.22 0.02 l -0.4 0.03 c -2.14 0.16 -4.15 -1.17 -5.01 -3.32 l -3.14 -6.22 c -0.25 -0.49 -0.05 -1.09 0.44 -1.34 c 0.14 -0.07 0.29 -0.11 0.45 -0.11 h 9.49 c 0.51 0 0.93 0.38 0.99 0.88 z"/><path d="m 8.5 10 h 14.5 c 0.55 0 1 0.45 1 1 v 15 c 0 0.55 -0.45 1 -1 1 h -14.5 c -4.69 0 -8.5 -3.81 -8.5 -8.5 s 3.81 -8.5 8.5 -8.5 z"/><path d="m 29.53 8.31 l 7.8 -5.2 c 1.38 -0.92 3.24 -0.55 4.16 0.83 c 0.33 0.49 0.5 1.07 0.5 1.66 v 25.79 c 0 1.66 -1.34 3 -3 3 c -0.59 0 -1.17 -0.18 -1.66 -0.5 l -7.8 -5.2 c -1.58 -1.05 -2.53 -2.83 -2.53 -4.73 v -10.91 c 0 -1.9 0.95 -3.68 2.53 -4.73 z"/></g></g><g fill="#e3e9ee"><rect height="6" mask="url(#c)" rx="3" width="66" x="26" y="111"/><rect height="6" mask="url(#c)" rx="3" width="66" x="26" y="125"/><rect height="6" mask="url(#c)" rx="3" width="66" x="26" y="139"/></g><rect height="6" mask="url(#c)" rx="3" width="66" x="26" y="168"/><rect fill="#58abf3" height="18" mask="url(#c)" rx="3" width="66" x="26" y="159"/></g></svg>